<svg width="40" height="18" viewBox="0 0 40 18" fill="none" xmlns="http://www.w3.org/2000/svg">
<path d="M1.76873 10.6623H33.9619L29.9062 14.7288C29.7373 14.8924 29.6025 15.088 29.5098 15.3044C29.4171 15.5208 29.3683 15.7535 29.3663 15.989C29.3643 16.2244 29.409 16.4579 29.4979 16.6759C29.5869 16.8938 29.7182 17.0918 29.8843 17.2584C30.0504 17.4249 30.2478 17.5566 30.4652 17.6457C30.6826 17.7349 30.9155 17.7798 31.1503 17.7777C31.3852 17.7757 31.6173 17.7267 31.8331 17.6338C32.0489 17.5409 32.244 17.4058 32.4072 17.2364L39.4821 10.1427C39.8137 9.81013 40 9.35914 40 8.88889C40 8.41864 39.8137 7.96765 39.4821 7.63508L32.4072 0.541404C32.244 0.372025 32.0489 0.236921 31.8331 0.143978C31.6173 0.0510352 31.3852 0.00211316 31.1503 6.69591e-05C30.9155 -0.00197924 30.6826 0.0428909 30.4652 0.13206C30.2478 0.221229 30.0504 0.352911 29.8843 0.519422C29.7182 0.685933 29.5869 0.883939 29.4979 1.10189C29.409 1.31983 29.3643 1.55336 29.3663 1.78883C29.3683 2.0243 29.4171 2.25701 29.5098 2.47337C29.6025 2.68974 29.7373 2.88543 29.9062 3.04902L33.9619 7.11547H1.76873C1.29964 7.11547 0.849752 7.30231 0.51805 7.63489C0.186348 7.96747 0 8.41855 0 8.88889C0 9.35923 0.186348 9.8103 0.51805 10.1429C0.849752 10.4755 1.29964 10.6623 1.76873 10.6623Z" fill="#41B17E"/>
</svg>
