<svg width="23" height="22" viewBox="0 0 23 22" fill="none" xmlns="http://www.w3.org/2000/svg"><path d="M22.1759 7.65367L19.5437 5.6796V3.04917C19.5433 2.73515 19.4172 2.43408 19.193 2.21203C18.9689 1.98998 18.6649 1.86509 18.3478 1.86474H14.4638L12.6179 0.480214C12.202 0.168676 11.6948 7.1278e-05 11.1733 2.25947e-08C10.6518 -7.12328e-05 10.1446 0.168395 9.72858 0.479819L7.88211 1.86474H3.99805C3.681 1.86509 3.37704 1.98998 3.15286 2.21203C2.92867 2.43408 2.80257 2.73515 2.80223 3.04917V5.6796L0.170029 7.65367C0.0860891 7.7233 0.0326837 7.82246 0.0210458 7.93029C-0.0351935 7.96036 0.0425705 19.5941 0.0119058 19.6312C0.0156412 20.2583 0.268831 20.8587 0.716567 21.3022C1.1643 21.7456 1.77048 21.9963 2.40364 22H19.9423C20.5764 21.9995 21.1845 21.7498 21.6329 21.3056C22.0813 20.8615 22.3334 20.2592 22.3339 19.6311V7.96848C22.3339 7.90747 22.3197 7.8473 22.2922 7.79268C22.2648 7.73806 22.225 7.69048 22.1759 7.65367ZM19.5437 6.67003L21.2805 7.9726L19.5437 9.31002V6.67003ZM10.2103 1.10905C10.4876 0.9014 10.8257 0.789074 11.1733 0.789145C11.5209 0.789216 11.859 0.901681 12.1362 1.10945L13.1432 1.86475H9.20271L10.2103 1.10905ZM3.59944 3.04917C3.59958 2.9445 3.64162 2.84416 3.71634 2.77015C3.79106 2.69614 3.89237 2.6545 3.99805 2.65436H18.3478C18.4535 2.6545 18.5548 2.69614 18.6296 2.77015C18.7043 2.84416 18.7463 2.9445 18.7465 3.04917V9.92393L12.3985 14.8121C12.0724 15.0926 11.6581 15.2523 11.2263 15.2638C10.7945 15.2754 10.3721 15.138 10.0312 14.8753L3.59944 9.9235V3.04917ZM2.80223 6.67003V9.30972L1.06543 7.97255L2.80223 6.67003ZM0.809201 19.6312V8.77555L9.03606 15.1105L1.15236 20.6044C0.930622 20.3275 0.809713 19.9846 0.809201 19.6312ZM19.9423 21.2104H2.40362C2.20585 21.2097 2.00995 21.1724 1.82604 21.1003L9.70895 15.6069C10.1405 15.8986 10.6507 16.0546 11.1731 16.0546C11.6955 16.0547 12.2057 15.8987 12.6373 15.6072L20.5199 21.1003C20.336 21.1724 20.1401 21.2097 19.9423 21.2104ZM21.5367 19.6312C21.5362 19.9846 21.4152 20.3275 21.1935 20.6044L13.309 15.1099L21.5367 8.77545V19.6312Z" fill="#005988"/><path d="M11.1813 12.9051C11.6834 12.9215 13.698 12.6057 13.3135 11.8363C13.2873 11.7914 13.2525 11.7521 13.2109 11.7205C13.1693 11.689 13.1219 11.6658 13.0713 11.6525C13.0207 11.6391 12.9679 11.6357 12.916 11.6426C12.8641 11.6494 12.814 11.6663 12.7687 11.6923C10.9792 12.7869 8.38555 11.6558 8.04545 9.57803C7.35723 5.4477 13.3492 4.2601 14.3036 8.33415C14.4676 9.08819 14.3907 10.2431 13.3668 10.2083L13.3668 7.62372C13.3668 7.51901 13.3248 7.41858 13.2501 7.34454C13.1753 7.2705 13.0739 7.22891 12.9682 7.22891C12.9107 7.22941 12.8541 7.24243 12.8022 7.26702C12.7504 7.29162 12.7046 7.3272 12.6682 7.37125C12.2638 6.99466 11.7296 6.78493 11.1745 6.78475C8.27753 6.87595 8.27757 11.0367 11.1746 11.1276C11.6327 11.1276 12.0792 10.9844 12.4504 10.7185C12.6912 10.8728 12.9667 10.9659 13.2525 10.9895C13.5383 11.013 13.8255 10.9664 14.0887 10.8536C14.352 10.7409 14.583 10.5655 14.7614 10.3431C14.9398 10.1207 15.0599 9.85809 15.1113 9.57863C15.1843 9.1169 15.176 8.64614 15.0868 8.1872C14.5468 5.12877 10.5124 3.93502 8.35583 6.16466C5.84936 8.59223 7.65549 12.9546 11.1813 12.9051ZM11.1745 10.338C10.8072 10.3339 10.4564 10.1866 10.1981 9.92785C9.93981 9.66915 9.79496 9.32 9.79496 8.95618C9.79497 8.59235 9.93983 8.24321 10.1981 7.98451C10.4564 7.72581 10.8072 7.57844 11.1745 7.57436C11.5418 7.57845 11.8927 7.72584 12.151 7.98454C12.4092 8.24325 12.5541 8.59239 12.5541 8.95622C12.5541 9.32004 12.4092 9.66919 12.1509 9.92788C11.8927 10.1866 11.5418 10.334 11.1745 10.338Z" fill="#005988"/></svg>