<svg width="22" height="22" viewBox="0 0 22 22" fill="none" xmlns="http://www.w3.org/2000/svg"><path fill-rule="evenodd" clip-rule="evenodd" d="M10.8561 0.000595151C7.68466 0.0439198 4.55906 1.44907 2.42151 4.10027C-1.37859 8.81351 -0.624335 15.7117 4.10995 19.495C8.68423 23.1503 15.3132 22.5728 19.1837 18.278C19.4925 17.9749 19.7393 17.5458 19.9095 17.1827C20.0103 16.9614 20.0932 16.7014 20.0623 16.3993C20.0315 16.0971 19.8677 15.7826 19.6039 15.5474C19.2102 15.1964 18.7801 14.9691 18.351 14.8324C18.2445 15.1554 18.1147 15.4742 17.946 15.768C18.2925 15.8614 18.6358 16.0308 18.924 16.308C19.2917 16.6618 18.7329 17.2369 18.519 17.4869C15.0615 21.5294 8.94862 22.0577 4.75172 18.7039C0.448721 15.2654 -0.237835 9.01544 3.21607 4.73157C6.66998 0.447707 12.9402 -0.235803 17.2432 3.20275C20.4666 5.7786 21.7658 10.0615 20.5055 13.9806C20.4603 14.1086 20.4676 14.2545 20.5284 14.3761C20.5891 14.4976 20.7041 14.5933 20.834 14.6347C20.9638 14.676 21.1109 14.6681 21.2313 14.6043C21.3516 14.5404 21.4378 14.4228 21.4757 14.2924C22.8642 9.97478 21.4362 5.24954 17.8849 2.41172C15.8784 0.808287 13.476 0.017642 11.0853 0.000595151C11.0082 2.56086e-05 10.9332 -0.000394977 10.8561 0.000595151ZM7.67785 3.90251C7.24784 3.92382 6.68539 4.20478 6.22624 4.44254C4.92227 5.11777 4.93312 7.5584 5.4928 8.87688C6.18381 10.5048 7.3915 11.87 8.67869 13.1515C9.96587 14.433 11.3372 15.6353 12.9724 16.3232C14.2968 16.8804 16.7483 16.8912 17.4265 15.593C17.7739 14.9282 18.2188 14.0526 17.8085 13.6687C17.7812 13.6431 17.7521 13.6213 17.7168 13.6002C17.0023 13.1741 16.0275 12.7786 15.3026 12.6419C14.6048 12.5103 14.0233 13.8072 13.2627 13.4481C12.3267 13.0062 11.3404 12.3178 10.4283 11.4097C9.51612 10.5016 8.82464 9.51965 8.38073 8.58785C8.02003 7.83068 9.33039 7.25927 9.19821 6.56463C9.06088 5.84294 8.66362 4.87245 8.23557 4.16112C8.21445 4.12603 8.18487 4.08948 8.15917 4.06224C8.03866 3.93458 7.8733 3.89282 7.67785 3.90251Z" fill="#005988"/></svg>