<svg width="24" height="24" viewBox="0 0 24 24" fill="none" xmlns="http://www.w3.org/2000/svg"><path d="M16.1321 22.877C15.4779 22.877 14.8648 22.5212 14.5583 21.9412C14.5076 21.8496 14.4664 21.738 14.4357 21.6465L11.9118 14.1268C11.6867 13.4857 11.8505 12.7732 12.3409 12.2953C12.8313 11.8069 13.5363 11.6437 14.18 11.8679L21.7307 14.3815C21.8121 14.412 21.9347 14.4425 22.0573 14.5236C22.6503 14.8394 23.0181 15.5204 22.9568 16.233C22.8955 16.9551 22.4252 17.5351 21.7307 17.7593L18.9214 18.6951C18.8399 18.7256 18.7882 18.7761 18.7576 18.8582L17.8179 21.656C17.5928 22.338 17.0104 22.8054 16.2854 22.8665H16.1216L16.1321 22.877ZM13.5976 13.2921C13.5162 13.2921 13.4549 13.3331 13.4242 13.3636C13.383 13.4047 13.3217 13.4962 13.3629 13.6279L15.8869 21.1571C15.9788 21.3507 16.112 21.3402 16.1522 21.3402C16.2643 21.3402 16.3361 21.2687 16.3667 21.1676L17.3064 18.3593C17.4903 17.8203 17.8993 17.413 18.4405 17.2403L21.2499 16.3045C21.3619 16.274 21.4137 16.1929 21.4232 16.0909C21.4232 16.0499 21.4232 15.9182 21.3006 15.8467L13.679 13.3131C13.679 13.3131 13.6177 13.2931 13.5871 13.2931L13.5976 13.2921Z" fill="#005988" stroke="white" stroke-width="0.5"/><path d="M13.659 22.4191C13.5776 22.2865 13.5163 22.1033 13.4645 21.9507L13.1379 20.9739C12.8209 21.1771 12.4943 21.3097 12.1571 21.3402H11.9837H11.7998C10.4713 21.2076 9.08239 19.4782 8.29502 16.772H11.728L11.2174 15.2457H7.94829C7.76439 14.2279 7.65233 13.129 7.65233 11.9385C7.65233 10.748 7.76439 9.6491 7.94829 8.63127H16.0402C16.204 9.5165 16.296 10.4828 16.3161 11.5006L17.8688 12.0196V11.9385C17.8688 10.7785 17.7768 9.66912 17.6034 8.63127H20.8218C21.2203 9.66912 21.4454 10.7785 21.4454 11.9385C21.4454 12.3553 21.4147 12.7732 21.364 13.1795L22.0795 13.4132C22.1916 13.4542 22.386 13.5153 22.6111 13.6469C22.6925 13.6879 22.7538 13.7385 22.8362 13.7891C22.9387 13.1786 23 12.5681 23 11.9375C23 6.05668 18.1983 1.15166 12.3746 1.02003C12.2826 1.00954 12.16 1 12.0575 1H11.9962C11.8736 1 11.7711 1 11.7404 1.01049H11.6993H11.6791C5.77203 1.19364 1 6.07766 1 11.9385C1 17.7993 5.8017 22.7244 11.6254 22.856C11.7375 22.8665 11.8601 22.876 11.9827 22.876H12.2586C12.7998 22.8655 13.3314 22.815 13.863 22.7234C13.7911 22.6213 13.7097 22.5402 13.6484 22.4382L13.659 22.4191ZM20.0651 7.10502H17.2758C16.8879 5.58926 16.3151 4.27668 15.6101 3.26935C17.4693 4.0525 19.023 5.40611 20.0651 7.10502ZM11.8104 2.52625H11.9837H12.1676C13.4962 2.65884 14.885 4.38828 15.6724 7.09452H8.29601C9.0824 4.38828 10.4722 2.65787 11.8104 2.51575L11.8104 2.52625ZM8.35632 3.27983C7.65134 4.29766 7.08908 5.59974 6.70116 7.10597H3.91189C4.94349 5.41659 6.49714 4.06396 8.35632 3.27983ZM2.53259 11.9385C2.53259 10.7785 2.75768 9.6691 3.15615 8.63125H6.37454C6.20117 9.6691 6.10922 10.7785 6.10922 11.9385C6.10922 13.0984 6.20117 14.2078 6.37454 15.2457H3.15615C2.75769 14.2078 2.53259 13.0984 2.53259 11.9385ZM3.9023 16.7719H6.69157C7.07949 18.2877 7.6523 19.6003 8.35728 20.6076C6.4981 19.8244 4.94445 18.4708 3.9023 16.7719Z" fill="#005988" stroke="white" stroke-width="0.5"/></svg>