<svg width="25" height="25" viewBox="0 0 25 25" fill="none" xmlns="http://www.w3.org/2000/svg">
<path d="M8.04388 10.5729H5.61196C5.40544 10.5729 5.23828 10.7401 5.23828 10.9466V13.3785C5.23828 13.5848 5.40544 13.7522 5.61196 13.7522H8.04388C8.2504 13.7522 8.41756 13.5848 8.41756 13.3785V10.9466C8.41756 10.7403 8.2504 10.5729 8.04388 10.5729ZM7.6702 13.0049H5.98564V11.3203H7.6702V13.0049Z" fill="#41B17E"/>
<path d="M13.7158 10.5729H11.2838C11.0773 10.5729 10.9102 10.7401 10.9102 10.9466V13.3785C10.9102 13.5848 11.0773 13.7522 11.2838 13.7522H13.7158C13.922 13.7522 14.0894 13.5848 14.0894 13.3785V10.9466C14.0894 10.7403 13.922 10.5729 13.7158 10.5729ZM13.3421 13.0049H11.6575V11.3203H13.3421V13.0049Z" fill="#41B17E"/>
<path d="M19.2118 10.5729H16.7799C16.5737 10.5729 16.4062 10.7401 16.4062 10.9466V13.3785C16.4062 13.5848 16.5737 13.7522 16.7799 13.7522H19.2118C19.4181 13.7522 19.5855 13.5848 19.5855 13.3785V10.9466C19.5855 10.7403 19.4181 10.5729 19.2118 10.5729ZM18.8382 13.0049H17.1536V11.3203H18.8382V13.0049Z" fill="#41B17E"/>
<path d="M8.04388 16.1124H5.61196C5.40544 16.1124 5.23828 16.2798 5.23828 16.4861V18.918C5.23828 19.1243 5.40544 19.2917 5.61196 19.2917H8.04388C8.2504 19.2917 8.41756 19.1243 8.41756 18.918V16.4861C8.41756 16.2798 8.2504 16.1124 8.04388 16.1124ZM7.6702 18.5443H5.98564V16.8598H7.6702V18.5443Z" fill="#41B17E"/>
<path d="M13.7158 16.1124H11.2838C11.0773 16.1124 10.9102 16.2798 10.9102 16.4861V18.918C10.9102 19.1243 11.0773 19.2917 11.2838 19.2917H13.7158C13.922 19.2917 14.0894 19.1243 14.0894 18.918V16.4861C14.0894 16.2798 13.922 16.1124 13.7158 16.1124ZM13.3421 18.5443H11.6575V16.8598H13.3421V18.5443Z" fill="#41B17E"/>
<path d="M19.2118 16.1124H16.7799C16.5737 16.1124 16.4062 16.2798 16.4062 16.4861V18.918C16.4062 19.1243 16.5737 19.2917 16.7799 19.2917H19.2118C19.4181 19.2917 19.5855 19.1243 19.5855 18.918V16.4861C19.5855 16.2798 19.4181 16.1124 19.2118 16.1124ZM18.8382 18.5443H17.1536V16.8598H18.8382V18.5443Z" fill="#41B17E"/>
<path d="M22.1717 3.33674H19.7037C19.7005 3.33674 19.6977 3.33749 19.6945 3.33774V2.84C19.6945 2.02587 19.0323 1.36371 18.2182 1.36371C17.4041 1.36371 16.7419 2.02612 16.7419 2.84V3.33674H13.961V2.84C13.961 2.02587 13.2988 1.36371 12.4847 1.36371C11.6706 1.36371 11.0084 2.02612 11.0084 2.84V3.33674H8.22722V2.84C8.22722 2.02587 7.56506 1.36371 6.75093 1.36371C5.93681 1.36371 5.27464 2.02612 5.27464 2.84V3.33699C5.2734 3.33699 5.27215 3.33674 5.27091 3.33674H2.80337C2.59685 3.33674 2.42969 3.5039 2.42969 3.71042V23.0786C2.42969 23.2848 2.59685 23.4522 2.80337 23.4522H22.1717C22.378 23.4522 22.5454 23.2848 22.5454 23.0786V3.71042C22.5454 3.5039 22.378 3.33674 22.1717 3.33674ZM17.4893 2.84C17.4893 2.43792 17.8161 2.11107 18.2182 2.11107C18.6203 2.11107 18.9471 2.43792 18.9471 2.84V4.90197C18.9471 5.3038 18.6203 5.6309 18.2182 5.6309C17.8161 5.6309 17.4893 5.30405 17.4893 4.90197V2.84ZM12.4847 2.11107C12.8865 2.11107 13.2136 2.43792 13.2136 2.84V4.90197C13.2136 5.3038 12.8868 5.6309 12.4847 5.6309C12.0826 5.6309 11.7558 5.30405 11.7558 4.90197V3.7453C11.7568 3.73359 11.7593 3.72238 11.7593 3.71018C11.7593 3.69797 11.7568 3.68676 11.7558 3.67505V2.84C11.7558 2.43792 12.0826 2.11107 12.4847 2.11107ZM6.02201 2.84C6.02201 2.43792 6.34885 2.11107 6.75093 2.11107C7.15277 2.11107 7.47986 2.43792 7.47986 2.84V4.90197C7.47986 5.3038 7.15301 5.6309 6.75093 5.6309C6.34885 5.6309 6.02201 5.30405 6.02201 4.90197V2.84ZM21.7981 22.7049H3.17705V4.08411H5.27091C5.27215 4.08411 5.2734 4.08386 5.27464 4.08386V4.90222C5.27464 5.71634 5.93706 6.37851 6.75093 6.37851C7.56481 6.37851 8.22722 5.71634 8.22722 4.90222V4.08435H11.0084V4.90222C11.0084 5.71634 11.6708 6.37851 12.4847 6.37851C13.2986 6.37851 13.961 5.71634 13.961 4.90222V4.08435H16.7419V4.90222C16.7419 5.71634 17.4041 6.37851 18.2182 6.37851C19.0323 6.37851 19.6945 5.71634 19.6945 4.90222V4.08311C19.6977 4.08311 19.7005 4.08411 19.7037 4.08411H21.7981V22.7049Z" fill="#41B17E"/>
</svg>