<svg width="48" height="50" viewBox="0 0 48 50" fill="none" xmlns="http://www.w3.org/2000/svg">
<path fill-rule="evenodd" clip-rule="evenodd" d="M6.96057 20.7619C7.1155 21.7459 7.61667 22.6423 8.37383 23.2896C9.131 23.9369 10.0944 24.2925 11.0905 24.2925C12.0867 24.2925 13.0501 23.9369 13.8072 23.2896C14.5644 22.6423 15.0656 21.7459 15.2205 20.7619H6.96057ZM25.8249 5.25626C26.2894 5.25637 26.7434 5.39422 27.1295 5.65237C27.5157 5.91052 27.8166 6.27738 27.9942 6.70656C28.1718 7.13573 28.2182 7.60794 28.1274 8.06347C28.0367 8.519 27.8129 8.93737 27.4843 9.2657C27.1558 9.59402 26.7372 9.81753 26.2816 9.90798C25.826 9.99842 25.3539 9.95173 24.9248 9.7738C24.4958 9.59588 24.1291 9.29472 23.8712 8.90841C23.6133 8.52209 23.4758 8.06798 23.476 7.6035C23.477 6.9809 23.7249 6.3841 24.1652 5.9439C24.6055 5.50371 25.2023 5.25604 25.8249 5.25517V5.25626ZM26.559 6.8705C26.4137 6.72499 26.2285 6.62585 26.0269 6.58562C25.8252 6.5454 25.6162 6.56589 25.4262 6.64451C25.2362 6.72312 25.0738 6.85634 24.9595 7.02729C24.8452 7.19824 24.7842 7.39924 24.7842 7.60487C24.7842 7.81049 24.8452 8.0115 24.9595 8.18245C25.0738 8.3534 25.2362 8.48661 25.4262 8.56523C25.6162 8.64385 25.8252 8.66434 26.0269 8.62411C26.2285 8.58388 26.4137 8.48474 26.559 8.33924C26.7536 8.14437 26.8629 7.88025 26.8629 7.60487C26.8629 7.32949 26.7536 7.06537 26.559 6.8705ZM36.431 20.7647C36.5859 21.7487 37.0871 22.645 37.8442 23.2923C38.6014 23.9396 39.5648 24.2953 40.5609 24.2953C41.5571 24.2953 42.5205 23.9396 43.2776 23.2923C44.0348 22.645 44.536 21.7487 44.6909 20.7647H36.431ZM36.6777 23.9921C36.1667 23.4827 35.7616 22.8773 35.4856 22.2108C35.2096 21.5443 35.0682 20.8297 35.0695 20.1082C35.0691 19.9912 35.1005 19.8763 35.1603 19.7757L39.5763 10.8856C38.991 10.7095 38.4634 10.3799 38.0485 9.93105H30.0178C29.5811 10.7168 28.9332 11.3646 28.1475 11.8013V31.8844C30.404 32.1316 34.1729 32.5102 35.1553 34.2316L44.529 30.8828C46.6826 30.1137 48.892 32.6879 47.6322 34.777C47.2332 35.3907 46.667 35.8776 46.0004 36.1801L28.1809 45.086C28.1222 45.1213 28.0583 45.1473 27.9916 45.1632C24.1325 46.0756 21.2382 45.7496 17.6481 45.3453C16.0875 45.1692 14.3929 44.9783 12.4444 44.8716L12.8853 46.6499C12.926 46.8183 12.8985 46.9958 12.8088 47.144C12.7192 47.2921 12.5746 47.3989 12.4066 47.4409L5.26373 49.21C5.09549 49.2505 4.91806 49.2229 4.77003 49.1333C4.622 49.0437 4.51536 48.8992 4.4733 48.7313L0.0189591 30.7422C-0.00155961 30.6589 -0.00546912 30.5724 0.00745358 30.4876C0.0203763 30.4028 0.049878 30.3214 0.0942742 30.248C0.13867 30.1746 0.197091 30.1106 0.2662 30.0598C0.335309 30.009 0.413752 29.9723 0.49705 29.9518L7.63996 28.1827C7.7233 28.1621 7.80987 28.1582 7.89473 28.1711C7.97959 28.1841 8.06106 28.2136 8.13449 28.2581C8.20791 28.3025 8.27184 28.361 8.32262 28.4302C8.3734 28.4994 8.41002 28.578 8.4304 28.6614L8.79307 30.1241C10.2722 28.7196 12.089 27.721 14.0674 27.2249C14.8603 27.0089 15.6892 26.9582 16.5026 27.0758C17.316 27.1934 18.0965 27.4769 18.7958 27.9087C20.4171 28.8616 21.8503 30.0573 23.5001 30.8768V11.7996C22.7144 11.3629 22.0666 10.7151 21.6299 9.92941H13.6008C13.187 10.3787 12.6604 10.7089 12.0757 10.8856L16.4923 19.7757C16.5515 19.8765 16.5826 19.9913 16.5826 20.1082C16.5826 21.5644 16.0041 22.9609 14.9745 23.9905C13.9448 25.0202 12.5483 25.5986 11.0922 25.5986C9.63603 25.5986 8.23953 25.0202 7.20988 23.9905C6.18024 22.9609 5.60179 21.5644 5.60179 20.1082C5.60172 19.9913 5.63308 19.8764 5.69259 19.7757L10.1065 10.8856C9.60246 10.7343 9.14014 10.4688 8.75541 10.1099C8.37068 9.75086 8.07391 9.30799 7.88815 8.81566C7.7024 8.32333 7.63266 7.7948 7.68436 7.27114C7.73606 6.74748 7.90781 6.24279 8.18625 5.79629C8.4647 5.34979 8.84235 4.97351 9.28985 4.69668C9.73735 4.41985 10.2427 4.24993 10.7665 4.20012C11.2903 4.15031 11.8186 4.22196 12.3103 4.40949C12.8019 4.59703 13.2437 4.8954 13.6013 5.28142H21.6299C22.0666 4.49572 22.7144 3.84788 23.5001 3.41118V0.656417C23.5001 0.482325 23.5693 0.315362 23.6924 0.19226C23.8155 0.0691581 23.9824 0 24.1565 0H27.4933C27.6674 0 27.8344 0.0691581 27.9575 0.19226C28.0806 0.315362 28.1497 0.482325 28.1497 0.656417V3.40899C28.9348 3.84631 29.5818 4.49452 30.0178 5.28033H38.0485C38.4062 4.89424 38.8481 4.59582 39.3398 4.40826C39.8316 4.22071 40.36 4.14907 40.8839 4.19891C41.4079 4.24876 41.9132 4.41874 42.3608 4.69566C42.8084 4.97257 43.1861 5.34896 43.4646 5.79558C43.743 6.24219 43.9147 6.74699 43.9664 7.27076C44.0181 7.79453 43.9482 8.32316 43.7624 8.81557C43.5765 9.30797 43.2796 9.75089 42.8948 10.1099C42.5099 10.4689 42.0475 10.7344 41.5434 10.8856L45.9594 19.7751C46.0191 19.8758 46.0505 19.9907 46.0502 20.1077C46.0505 21.1937 45.7287 22.2554 45.1255 23.1585C44.5224 24.0616 43.6649 24.7655 42.6616 25.1812C41.6584 25.597 40.5543 25.7058 39.4892 25.4941C38.424 25.2823 37.4456 24.7599 36.6777 23.9921ZM36.7794 19.4518H44.3403L40.5598 11.8418L36.7794 19.4513V19.4518ZM14.8699 19.4518L11.0911 11.8418L7.31121 19.4513L14.8699 19.4518ZM26.8391 2.91723V1.31283H24.8102V2.91723C25.4789 2.7739 26.1704 2.7739 26.8391 2.91723ZM30.5101 6.59043C30.6534 7.25913 30.6534 7.95061 30.5101 8.61931H38.3521C38.9089 8.61931 38.8362 9.10724 39.6206 9.49726C39.9429 9.657 40.3006 9.73187 40.6598 9.71478C41.0191 9.69768 41.368 9.58919 41.6737 9.39957C41.9793 9.20996 42.2315 8.94548 42.4064 8.63119C42.5812 8.31689 42.673 7.96317 42.673 7.6035C42.673 7.24383 42.5812 6.89011 42.4064 6.57581C42.2315 6.26152 41.9793 5.99704 41.6737 5.80743C41.368 5.61781 41.0191 5.50932 40.6598 5.49223C40.3006 5.47513 39.9429 5.55 39.6206 5.70974C38.8324 6.10195 38.9095 6.58934 38.3521 6.58934L30.5101 6.59043ZM26.8391 12.2925C26.1704 12.4358 25.4789 12.4358 24.8102 12.2925V31.4205C25.4783 31.5739 26.1562 31.681 26.8391 31.7411V12.2925ZM21.137 8.61931C20.9937 7.95061 20.9937 7.25913 21.137 6.59043H13.2977C12.7403 6.59043 12.8136 6.10249 12.0292 5.71192C11.707 5.55218 11.3493 5.47732 10.99 5.49441C10.6307 5.51151 10.2818 5.62 9.97615 5.80962C9.67052 5.99923 9.41834 6.2637 9.24346 6.578C9.06859 6.89229 8.9768 7.24602 8.9768 7.60569C8.9768 7.96536 9.06859 8.31908 9.24346 8.63338C9.41834 8.94767 9.67052 9.21214 9.97615 9.40176C10.2818 9.59138 10.6307 9.69987 10.99 9.71696C11.3493 9.73406 11.707 9.65919 12.0292 9.49945C12.8169 9.10779 12.7403 8.6204 13.2977 8.6204L21.137 8.61931ZM28.2892 5.14194C27.8019 4.65447 27.1809 4.32248 26.5048 4.18795C25.8288 4.05342 25.128 4.12239 24.4912 4.38614C23.8543 4.6499 23.31 5.09658 22.927 5.66971C22.544 6.24283 22.3396 6.91666 22.3396 7.60596C22.3396 8.29527 22.544 8.96909 22.927 9.54222C23.31 10.1153 23.8543 10.562 24.4912 10.8258C25.128 11.0895 25.8288 11.1585 26.5048 11.024C27.1809 10.8894 27.8019 10.5575 28.2892 10.07C28.9426 9.41644 29.3097 8.53012 29.3097 7.60596C29.3097 6.6818 28.9426 5.79548 28.2892 5.14194ZM27.4687 33.1261C27.4395 33.125 27.4105 33.1218 27.3817 33.1168C26.3178 33.0461 25.2629 32.8756 24.2309 32.6075C21.8011 31.7531 20.1994 30.251 18.1377 29.0388C17.5872 28.6954 16.9715 28.4696 16.3296 28.3755C15.6876 28.2813 15.033 28.3209 14.4071 28.4918C12.3875 28.9901 10.5625 30.0795 9.16559 31.6207L12.1195 43.5456C14.2928 43.6496 16.1203 43.8552 17.7942 44.044C21.2404 44.4323 24.0192 44.7452 27.6306 43.9028L45.419 35.0133C45.8617 34.8176 46.2408 34.5017 46.513 34.1014C46.6344 33.8667 46.6862 33.6021 46.662 33.3389C46.6379 33.0757 46.539 32.8248 46.3768 32.6161C46.2147 32.4073 45.9963 32.2493 45.7472 32.1608C45.4982 32.0722 45.229 32.0568 44.9715 32.1163L35.3298 35.5625C35.2462 35.8972 35.1121 36.2172 34.9322 36.5116C34.122 37.889 32.7933 37.5602 31.5057 37.5793C30.6049 37.5925 29.7647 37.6071 28.985 37.6231C24.0947 37.7166 21.6222 37.7637 18.0283 36.8474C17.8708 36.7951 17.739 36.6851 17.6593 36.5395C17.5797 36.3939 17.5581 36.2235 17.599 36.0627C17.6399 35.9019 17.7403 35.7625 17.8798 35.6726C18.0193 35.5827 18.1877 35.5491 18.3511 35.5784C21.7896 36.4536 24.1992 36.4093 28.9631 36.3179C29.7339 36.3037 30.5659 36.2878 31.4892 36.2742C32.3399 36.2616 33.4432 36.4667 33.8053 35.8513C33.8992 35.7364 33.965 35.6011 33.9973 35.4563C34.0297 35.3115 34.0277 35.1611 33.9917 35.0171C33.9556 34.8732 33.8864 34.7397 33.7895 34.6272C33.6927 34.5148 33.5709 34.4265 33.4339 34.3695C32.1758 33.6304 29.596 33.3569 27.466 33.1266L27.4687 33.1261ZM10.9647 44.3339L7.31668 29.6104L1.44503 31.0649L5.58483 47.7833L11.4587 46.3288L10.9647 44.3339Z" fill="white"/>
</svg>
