<svg width="207" height="162" viewBox="0 0 207 162" fill="none" xmlns="http://www.w3.org/2000/svg">
    <g clip-path="url(#clip0_234_130)">
        <path d="M25.1002 0.0468789C30.423 0.33808 36.9667 -0.584057 43.4126 0.677814C49.7609 1.89115 55.1326 4.80316 58.8439 10.336C69.8313 26.5462 80.8676 42.7078 91.9039 58.918C94.785 63.1404 97.6174 67.3629 100.401 71.6338C102.647 75.0311 102.549 78.477 100.254 81.8258C92.9294 92.6003 85.5556 103.326 78.1818 114.101C71.6381 123.662 65.0945 133.223 58.5509 142.735C56.4022 145.89 54.3024 149.045 52.0561 152.102C47.4169 158.412 40.5803 160.887 33.2065 161.227C23.7817 161.663 14.3569 161.372 4.88331 161.372C1.41616 161.372 0 159.916 0 156.422C0 148.851 0 141.231 0 133.66C0 130.068 1.41616 128.709 5.07864 128.709C10.2061 128.661 15.3336 128.661 20.4611 128.709C21.7796 128.709 22.6586 128.321 23.4887 127.156C34.0367 111.722 44.6334 96.2888 55.2791 80.9522C56.1581 79.6904 56.1581 78.8653 55.2791 77.6034C48.0518 67.2172 40.9221 56.8311 33.7925 46.3964C31.0578 42.4166 28.3232 38.5339 25.6862 34.5542C24.856 33.3409 23.977 32.807 22.5121 32.807C17.9706 32.8555 10.4503 32.8555 5.9088 32.807C2.49049 32.807 0.341832 31.1083 0.292999 27.808C0.146499 20.1398 0.146499 12.4229 0.292999 4.75463C0.341832 1.74555 2.39282 0.0954124 5.37164 0.0954124C10.5968 0.0468789 18.7519 0.0468789 25.1002 0.0468789Z" fill="#ffffff"/>
    </g>
    <g clip-path="url(#clip1_234_130)">
        <path d="M130.088 0.0468789C135.41 0.33808 141.954 -0.584057 148.4 0.677814C154.748 1.89115 160.12 4.80316 163.831 10.336C174.819 26.5462 185.855 42.7078 196.891 58.918C199.772 63.1404 202.605 67.3629 205.388 71.6338C207.634 75.0311 207.537 78.477 205.242 81.8258C197.917 92.6003 190.543 103.326 183.169 114.101C176.625 123.662 170.082 133.223 163.538 142.735C161.39 145.89 159.29 149.045 157.043 152.102C152.404 158.412 145.568 160.887 138.194 161.227C128.769 161.663 119.344 161.372 109.871 161.372C106.403 161.372 104.987 159.916 104.987 156.422C104.987 148.851 104.987 141.231 104.987 133.66C104.987 130.068 106.403 128.709 110.066 128.709C115.193 128.661 120.321 128.661 125.448 128.709C126.767 128.709 127.646 128.321 128.476 127.156C139.024 111.722 149.621 96.2888 160.266 80.9522C161.145 79.6904 161.145 78.8653 160.266 77.6034C153.039 67.2172 145.909 56.8311 138.78 46.3964C136.045 42.4166 133.31 38.5339 130.674 34.5542C129.843 33.3409 128.964 32.807 127.499 32.807C122.958 32.8555 115.438 32.8555 110.896 32.807C107.478 32.807 105.329 31.1083 105.28 27.808C105.134 20.1398 105.134 12.4229 105.28 4.75463C105.329 1.74555 107.38 0.0954124 110.359 0.0954124C115.584 0.0468789 123.739 0.0468789 130.088 0.0468789Z" fill="#ffffff"/>
    </g>
    <defs>
        <clipPath id="clip0_234_130">
            <rect width="102.012" height="161.52" fill="white"/>
        </clipPath>
        <clipPath id="clip1_234_130">
            <rect width="102.012" height="161.52" fill="white" transform="translate(104.987)"/>
        </clipPath>
    </defs>
</svg>