<svg width="34" height="34" viewBox="0 0 34 34" fill="none" xmlns="http://www.w3.org/2000/svg">
<path fill-rule="evenodd" clip-rule="evenodd" d="M17.2928 33.4138C26.5198 33.4138 33.9997 25.9338 33.9997 16.7069C33.9997 7.47993 26.5198 0 17.2928 0C8.06586 0 0.585938 7.47993 0.585938 16.7069C0.585938 25.9338 8.06586 33.4138 17.2928 33.4138Z" fill="white"/>
<path fill-rule="evenodd" clip-rule="evenodd" d="M17.2929 18.6352L26.9315 10.2817H7.65429L17.2929 18.6352ZM14.6895 17.7105L17.2929 19.8474L19.8555 17.7105L26.9315 23.7758H7.65429L14.6895 17.7105ZM7.01172 23.1332V10.9243L14.08 17.0287L7.01172 23.1332ZM27.574 23.1332V10.9243L20.5057 17.0287L27.574 23.1332Z" fill="#0083CA"/>
</svg>