<svg width="34" height="34" viewBox="0 0 34 34" fill="none" xmlns="http://www.w3.org/2000/svg">
<g clip-path="url(#clip0_29_186)">
<path d="M17 0C7.61115 0 0 7.61115 0 17C0 26.3888 7.61115 34 17 34C26.3888 34 34 26.3888 34 17C34 7.61115 26.3888 0 17 0ZM21.4884 10.1886C21.4884 10.1886 19.749 10.0515 19.0637 10.3045C17.9311 10.7229 17.9041 11.7013 17.9041 12.6343V14.5398H21.3671L20.8611 18.1847H17.9041V27.1823H13.9928V18.1847H10.7408V14.5398H13.993V11.4484C13.993 8.17514 16.5126 6.98919 18.0148 6.84688C19.5169 6.70457 21.4884 7.1315 21.4884 7.1315V10.1886Z" fill="white"/>
</g>
<defs>
<clipPath id="clip0_29_186">
<rect width="34" height="34" fill="white"/>
</clipPath>
</defs>
</svg>
