<svg width="32" height="32" viewBox="0 0 32 32" fill="none" xmlns="http://www.w3.org/2000/svg">
<g clip-path="url(#clip0_216_3896)">
<path fill-rule="evenodd" clip-rule="evenodd" d="M16 32C24.8366 32 32 24.8366 32 16C32 7.16344 24.8366 0 16 0C7.16344 0 0 7.16344 0 16C0 24.8366 7.16344 32 16 32ZM16 30.08C23.7762 30.08 30.08 23.7762 30.08 16C30.08 8.22383 23.7762 1.92 16 1.92C8.22383 1.92 1.92 8.22383 1.92 16C1.92 23.7762 8.22383 30.08 16 30.08ZM17.1613 23.04V15.9992H19.244L19.52 13.5729H17.1613L17.1648 12.3585C17.1648 11.7257 17.2293 11.3866 18.2032 11.3866H19.5053V8.96H17.4223C14.9202 8.96 14.0396 10.137 14.0396 12.1164V13.5731H12.48V15.9995H14.0396V23.04H17.1613Z" fill="white"/>
</g>
<defs>
<clipPath id="clip0_216_3896">
<rect width="32" height="32" fill="white"/>
</clipPath>
</defs>
</svg>