<svg width="32" height="32" viewBox="0 0 32 32" fill="none" xmlns="http://www.w3.org/2000/svg">
<g clip-path="url(#clip0_216_3900)">
<path fill-rule="evenodd" clip-rule="evenodd" d="M16 32C24.8366 32 32 24.8366 32 16C32 7.16344 24.8366 0 16 0C7.16344 0 0 7.16344 0 16C0 24.8366 7.16344 32 16 32ZM16 30.08C23.7762 30.08 30.08 23.7762 30.08 16C30.08 8.22383 23.7762 1.92 16 1.92C8.22383 1.92 1.92 8.22383 1.92 16C1.92 23.7762 8.22383 30.08 16 30.08ZM8.96 12.8756V22.1812H11.9745V12.8756H8.96ZM10.6654 8.32C9.63418 8.32 8.96 9.01495 8.96 9.92737C8.96 10.8209 9.61425 11.5358 10.6263 11.5358H10.6455C11.6966 11.5358 12.3512 10.8209 12.3512 9.92737C12.3317 9.01495 11.6966 8.32 10.6654 8.32ZM19.5692 12.8756C17.9688 12.8756 17.2522 13.7788 16.8521 14.4124V13.0943H13.8373C13.877 13.9675 13.8373 22.4 13.8373 22.4H16.8521V17.2029C16.8521 16.9248 16.8717 16.6474 16.9514 16.4483C17.1692 15.8926 17.6653 15.3174 18.4981 15.3174C19.5893 15.3174 20.0255 16.1707 20.0255 17.4212V22.3998H23.0399L23.04 17.0642C23.04 14.2059 21.5529 12.8756 19.5692 12.8756Z" fill="white"/>
</g>
<defs>
<clipPath id="clip0_216_3900">
<rect width="32" height="32" fill="white"/>
</clipPath>
</defs>
</svg>
