<svg width="33" height="34" viewBox="0 0 33 34" fill="none" xmlns="http://www.w3.org/2000/svg">
<path d="M16.5 0C7.3873 0 0 7.61115 0 17C0 26.3888 7.3873 34 16.5 34C25.6127 34 33 26.3888 33 17C33 7.61115 25.6127 0 16.5 0ZM11.823 25.4115H8.14565V13.5238H11.823V25.4115ZM9.98431 11.9669C9.57511 11.9669 9.1751 11.8419 8.83486 11.6077C8.49462 11.3735 8.22944 11.0405 8.07285 10.651C7.91625 10.2615 7.87528 9.83293 7.95511 9.41943C8.03494 9.00594 8.23199 8.62611 8.52134 8.328C8.81069 8.02988 9.17934 7.82686 9.58067 7.74462C9.98201 7.66237 10.398 7.70458 10.7761 7.86592C11.1541 8.02726 11.4772 8.30048 11.7046 8.65102C11.9319 9.00157 12.0532 9.4137 12.0532 9.8353C12.0532 10.4006 11.8353 10.9428 11.4473 11.3426C11.0593 11.7424 10.533 11.9669 9.98431 11.9669ZM25.0852 25.4115H21.4758V18.9115C21.4758 18.5813 21.5264 16.3915 19.7214 16.3915C19.4007 16.3832 19.0827 16.4549 18.7946 16.6002C18.5064 16.7456 18.2566 16.9605 18.0662 17.2266C17.7347 17.6823 17.5577 18.2376 17.5623 18.807V25.4112H13.9573V13.5238H17.3873V15.1922C18.2082 13.8946 19.2428 13.4196 20.2605 13.2284C22.0669 12.8891 25.0848 14.0221 25.0848 17.4053L25.0852 25.4115Z" fill="white"/>
</svg>
