<svg width="32" height="32" viewBox="0 0 32 32" fill="none" xmlns="http://www.w3.org/2000/svg">
<g clip-path="url(#clip0_216_3888)">
<path fill-rule="evenodd" clip-rule="evenodd" d="M16 0C7.16344 0 0 7.16344 0 16C0 24.8366 7.16344 32 16 32C24.8366 32 32 24.8366 32 16C32 7.16344 24.8366 0 16 0ZM16 1.92C8.22383 1.92 1.92 8.22383 1.92 16C1.92 23.7762 8.22383 30.08 16 30.08C23.7762 30.08 30.08 23.7762 30.08 16C30.08 8.22383 23.7762 1.92 16 1.92ZM23.0088 22.0862C23.0209 22.0208 23.0297 21.9544 23.04 21.8888V10.1112C23.0301 10.0466 23.0217 9.98191 23.0096 9.9176C22.8864 9.25789 22.3659 8.74592 21.7269 8.6545C21.7003 8.65093 21.6744 8.64483 21.6483 8.64H10.3517C10.2836 8.65282 10.215 8.66249 10.1479 8.67846C9.52409 8.82705 9.06253 9.35225 8.97367 10.013C8.97005 10.0405 8.96462 10.0679 8.96 10.0954V21.9052C8.97287 21.9801 8.98312 22.0555 8.9992 22.1299C9.13711 22.7675 9.65778 23.2619 10.2772 23.3451C10.3071 23.3489 10.3373 23.355 10.3672 23.36H21.6328C21.706 23.347 21.7793 23.3363 21.8517 23.3199C22.4267 23.1923 22.8965 22.6908 23.0088 22.0862ZM10.4834 21.1833C10.4834 21.4967 10.7429 21.7661 11.0427 21.7661C14.3468 21.7663 17.6508 21.7663 20.9549 21.7661C21.2575 21.7661 21.5156 21.4971 21.5156 21.1814C21.5158 19.0056 21.5156 16.8299 21.5156 14.6543V14.6091H20.1715C20.3613 15.2432 20.4196 15.8882 20.3452 16.5456C20.2704 17.2032 20.0678 17.8152 19.7377 18.3803C19.4074 18.9461 18.9792 19.4148 18.4549 19.7878C17.0959 20.7554 15.3067 20.8405 13.8648 19.9944C13.1358 19.5671 12.5635 18.9713 12.1644 18.2036C11.5692 17.058 11.4741 15.8556 11.8233 14.6081C11.3774 14.6085 10.9333 14.6085 10.4832 14.6085V14.6482C10.4832 16.8266 10.483 19.0049 10.4834 21.1833ZM15.9346 18.9812C17.5287 19.0169 18.8182 17.6853 18.8517 16.0658C18.8861 14.3956 17.5975 13.0161 16.0001 13.0171C14.4385 13.0161 13.169 14.3296 13.1471 15.9548C13.1246 17.6237 14.4025 18.9467 15.9346 18.9812ZM21.5154 11.8282C21.5156 11.3635 21.5156 10.8986 21.5154 10.434C21.5154 10.1007 21.2631 9.83542 20.9447 9.83521C20.5014 9.835 20.0581 9.83479 19.6146 9.83521C19.297 9.83563 19.0439 10.1015 19.0437 10.4348C19.0435 10.8955 19.0423 11.3562 19.0453 11.8171C19.0457 11.8858 19.0582 11.9573 19.0791 12.0224C19.1587 12.2677 19.3736 12.4181 19.6367 12.4194C19.8506 12.4198 20.0645 12.4192 20.2786 12.4192C20.5102 12.4165 20.7426 12.4211 20.9744 12.4152C21.2725 12.4074 21.5154 12.1403 21.5154 11.8282Z" fill="white"/>
</g>
<defs>
<clipPath id="clip0_216_3888">
<rect width="32" height="32" fill="white"/>
</clipPath>
</defs>
</svg>