<svg width="150" height="117" viewBox="0 0 150 117" fill="none" xmlns="http://www.w3.org/2000/svg">
<g style="mix-blend-mode:multiply" opacity="0.65">
<g clip-path="url(#clip0_252_3890)">
<path d="M18.1279 0.0336129C21.9722 0.243925 26.6981 -0.422063 31.3536 0.489289C35.9384 1.36559 39.818 3.46871 42.4984 7.46463C50.4337 19.172 58.4044 30.8443 66.375 42.5517C68.4558 45.6012 70.5014 48.6507 72.5117 51.7353C74.1341 54.1889 74.0635 56.6776 72.4059 59.0962C67.1157 66.8777 61.7901 74.6242 56.4646 82.4058C51.7387 89.311 47.0127 96.2162 42.2867 103.086C40.7349 105.365 39.2184 107.643 37.5961 109.851C34.2456 114.408 29.308 116.196 23.9825 116.441C17.1757 116.757 10.3689 116.546 3.52683 116.546C1.02278 116.546 0 115.495 0 112.971C0 107.503 0 102 0 96.5317C0 93.9379 1.02278 92.9564 3.66791 92.9564C7.37108 92.9214 11.0743 92.9214 14.7774 92.9564C15.7297 92.9564 16.3645 92.676 16.9641 91.8347C24.582 80.6882 32.2353 69.5417 39.9238 58.4653C40.5586 57.5539 40.5586 56.958 39.9238 56.0467C34.704 48.5455 29.5549 41.0444 24.4057 33.5083C22.4307 30.634 20.4556 27.8298 18.5511 24.9556C17.9516 24.0793 17.3168 23.6937 16.2587 23.6937C12.9787 23.7288 7.54743 23.7288 4.26747 23.6937C1.79869 23.6937 0.246878 22.4669 0.21161 20.0833C0.105805 14.5451 0.105805 8.97187 0.21161 3.43365C0.246878 1.26043 1.72815 0.0686648 3.87952 0.0686648C7.65323 0.0336129 13.543 0.0336129 18.1279 0.0336129Z" fill="#DFE7EB"/>
</g>
<g clip-path="url(#clip1_252_3890)">
<path d="M93.9531 0.0336129C97.7974 0.243925 102.523 -0.422063 107.179 0.489289C111.764 1.36559 115.643 3.46871 118.324 7.46463C126.259 19.172 134.23 30.8443 142.2 42.5517C144.281 45.6012 146.327 48.6507 148.337 51.7353C149.959 54.1889 149.889 56.6776 148.231 59.0962C142.941 66.8777 137.615 74.6242 132.29 82.4058C127.564 89.311 122.838 96.2162 118.112 103.086C116.56 105.365 115.044 107.643 113.421 109.851C110.071 114.408 105.133 116.196 99.8077 116.441C93.0009 116.757 86.1941 116.546 79.352 116.546C76.848 116.546 75.8252 115.495 75.8252 112.971C75.8252 107.503 75.8252 102 75.8252 96.5317C75.8252 93.9379 76.848 92.9564 79.4931 92.9564C83.1963 92.9214 86.8995 92.9214 90.6026 92.9564C91.5549 92.9564 92.1897 92.676 92.7893 91.8347C100.407 80.6882 108.06 69.5417 115.749 58.4653C116.384 57.5539 116.384 56.958 115.749 56.0467C110.529 48.5455 105.38 41.0444 100.231 33.5083C98.2559 30.634 96.2808 27.8298 94.3763 24.9556C93.7768 24.0793 93.142 23.6937 92.0839 23.6937C88.8039 23.7288 83.3726 23.7288 80.0927 23.6937C77.6239 23.6937 76.0721 22.4669 76.0368 20.0833C75.931 14.5451 75.931 8.97187 76.0368 3.43365C76.0721 1.26043 77.5533 0.0686648 79.7047 0.0686648C83.4784 0.0336129 89.3682 0.0336129 93.9531 0.0336129Z" fill="#D5EBE1"/>
</g>
</g>
<defs>
<clipPath id="clip0_252_3890">
<rect width="73.6756" height="116.653" fill="white"/>
</clipPath>
<clipPath id="clip1_252_3890">
<rect width="73.6756" height="116.653" fill="white" transform="translate(75.8252)"/>
</clipPath>
</defs>
</svg>