<svg width="150" height="118" viewBox="0 0 150 118" fill="none" xmlns="http://www.w3.org/2000/svg">
<g style="mix-blend-mode:darken">
<g clip-path="url(#clip0_29_88)">
<path d="M18.1886 0.0338694C22.0457 0.244885 26.7874 -0.42333 31.4584 0.491069C36.0586 1.3703 39.9511 3.48045 42.6405 7.48974C50.6024 19.2363 58.5997 30.9476 66.597 42.6941C68.6848 45.7538 70.7372 48.8136 72.7542 51.9085C74.382 54.3703 74.3112 56.8673 72.6481 59.294C67.3401 67.1016 61.9968 74.8739 56.6535 82.6815C51.9117 89.6098 47.1699 96.5382 42.4282 103.431C40.8712 105.717 39.3496 108.003 37.7218 110.219C34.3601 114.791 29.406 116.585 24.0627 116.831C17.2331 117.147 10.4036 116.936 3.53863 116.936C1.0262 116.936 0 115.881 0 113.349C0 107.863 0 102.341 0 96.8547C0 94.2522 1.0262 93.2675 3.68018 93.2675C7.39574 93.2323 11.1113 93.2323 14.8269 93.2675C15.7823 93.2675 16.4192 92.9861 17.0208 92.142C24.6643 80.9582 32.3431 69.7744 40.0573 58.6609C40.6942 57.7465 40.6942 57.1487 40.0573 56.2343C34.8201 48.7081 29.6537 41.1818 24.4873 33.6205C22.5057 30.7366 20.5241 27.9231 18.6132 25.0392C18.0116 24.1599 17.3747 23.7731 16.3131 23.7731C13.0222 23.8083 7.57267 23.8083 4.28174 23.7731C1.8047 23.7731 0.247704 22.5422 0.212318 20.1507C0.106159 14.5939 0.106159 9.00202 0.212318 3.44528C0.247704 1.26479 1.73393 0.0690386 3.89249 0.0690386C7.67883 0.0338694 13.5883 0.0338694 18.1886 0.0338694Z" fill="#005988"/>
</g>
<g clip-path="url(#clip1_29_88)">
<path d="M94.2667 0.0338694C98.1238 0.244885 102.866 -0.42333 107.537 0.491069C112.137 1.3703 116.029 3.48045 118.719 7.48974C126.681 19.2363 134.678 30.9476 142.675 42.6941C144.763 45.7538 146.815 48.8136 148.832 51.9085C150.46 54.3703 150.389 56.8673 148.726 59.294C143.418 67.1016 138.075 74.8739 132.732 82.6815C127.99 89.6098 123.248 96.5382 118.506 103.431C116.949 105.717 115.428 108.003 113.8 110.219C110.438 114.791 105.484 116.585 100.141 116.831C93.3113 117.147 86.4817 116.936 79.6168 116.936C77.1043 116.936 76.0781 115.881 76.0781 113.349C76.0781 107.863 76.0781 102.341 76.0781 96.8547C76.0781 94.2522 77.1043 93.2675 79.7583 93.2675C83.4739 93.2323 87.1894 93.2323 90.905 93.2675C91.8604 93.2675 92.4974 92.9861 93.0989 92.142C100.742 80.9582 108.421 69.7744 116.135 58.6609C116.772 57.7465 116.772 57.1487 116.135 56.2343C110.898 48.7081 105.732 41.1818 100.565 33.6205C98.5838 30.7366 96.6022 27.9231 94.6913 25.0392C94.0898 24.1599 93.4528 23.7731 92.3912 23.7731C89.1003 23.8083 83.6508 23.8083 80.3599 23.7731C77.8828 23.7731 76.3258 22.5422 76.2904 20.1507C76.1843 14.5939 76.1843 9.00202 76.2904 3.44528C76.3258 1.26479 77.8121 0.0690386 79.9706 0.0690386C83.757 0.0338694 89.6665 0.0338694 94.2667 0.0338694Z" fill="#41B17E"/>
</g>
</g>
<defs>
<clipPath id="clip0_29_88">
<rect width="73.922" height="117.043" fill="white"/>
</clipPath>
<clipPath id="clip1_29_88">
<rect width="73.922" height="117.043" fill="white" transform="translate(76.0781)"/>
</clipPath>
</defs>
</svg>
