<svg width="209" height="330" viewBox="0 0 209 330" fill="none" xmlns="http://www.w3.org/2000/svg">
<g style="mix-blend-mode:lighten" opacity="0.5">
<g clip-path="url(#clip0_217_4036)">
<path d="M51.2652 0.0960333C62.1367 0.690789 75.5015 -1.1926 88.6669 1.38467C101.633 3.86282 112.604 9.81038 120.184 21.1107C142.625 54.2188 165.166 87.2277 187.707 120.336C193.591 128.96 199.376 137.584 205.061 146.307C209.649 153.246 209.449 160.284 204.762 167.123C189.801 189.129 174.741 211.036 159.68 233.042C146.315 252.57 132.951 272.098 119.586 291.526C115.197 297.97 110.908 304.413 106.321 310.658C96.8454 323.544 82.8821 328.599 67.8217 329.293C48.5723 330.185 29.3229 329.591 9.97378 329.591C2.8924 329.591 0 326.617 0 319.48C0 304.016 0 288.453 0 272.99C0 265.654 2.8924 262.879 10.3727 262.879C20.8452 262.78 31.3177 262.78 41.7901 262.879C44.4831 262.879 46.2783 262.086 47.9739 259.707C69.5173 228.185 91.1604 196.663 112.903 165.339C114.698 162.762 114.698 161.077 112.903 158.499C98.142 137.286 83.5803 116.073 69.0186 94.7613C63.4333 86.633 57.8479 78.7029 52.4621 70.5746C50.7665 68.0964 48.9713 67.006 45.9791 67.006C36.7035 67.1052 21.3439 67.1052 12.0683 67.006C5.08663 67.006 0.698165 63.5366 0.598427 56.7961C0.299213 41.1342 0.299213 25.3731 0.598427 9.71125C0.698165 3.56544 4.88715 0.195159 10.9712 0.195159C21.6431 0.0960333 38.2993 0.0960333 51.2652 0.0960333Z" fill="#F2FFF9" fill-opacity="0.25"/>
</g>
</g>
<defs>
<clipPath id="clip0_217_4036">
<rect width="208.352" height="329.891" fill="white"/>
</clipPath>
</defs>
</svg>
