<svg width="30" height="30" viewBox="0 0 30 30" fill="none" xmlns="http://www.w3.org/2000/svg">
<g clip-path="url(#clip0_252_3397)">
<path d="M4.52018 0.020241C5.24018 0.020241 5.97018 0.000241021 6.69018 0.020241C8.51018 0.070241 9.91018 0.760241 10.9402 2.37024C13.1502 5.80024 15.4402 9.18024 17.7602 12.5402C18.5002 13.6102 18.4802 14.4802 17.7402 15.5402C15.1002 19.3502 12.4802 23.1702 9.96018 27.0602C8.90018 28.6902 7.51018 29.4902 5.65018 29.5602C4.16018 29.6102 2.67018 29.5602 1.18018 29.5802C0.370179 29.5902 0.000178571 29.2102 0.000178571 28.4202C0.000178571 27.2302 0.0101786 26.0402 0.000178571 24.8502C-0.00982143 24.0002 0.400179 23.4702 1.23018 23.6402C3.67018 24.1402 4.91018 22.8202 6.02018 20.9102C7.14018 18.9602 8.49018 17.1402 9.79018 15.3002C10.2002 14.7202 10.2002 14.3002 9.79018 13.7202C8.23018 11.4902 6.69018 9.25024 5.21018 6.96024C4.69018 6.14024 4.11018 5.75024 3.14018 5.89024C2.68018 5.96024 2.21018 5.89024 1.74018 5.91024C0.990179 5.93024 0.650179 5.57024 0.660179 4.82024C0.670179 3.59024 0.680179 2.35024 0.660179 1.12024C0.650179 0.290241 1.06018 -0.00975898 1.84018 0.00024102C2.73018 0.020241 3.63018 0.00024102 4.52018 0.00024102C4.52018 0.00024102 4.52018 0.00024102 4.52018 0.010241V0.020241Z" fill="white"/>
<path d="M25.5596 29.5799C21.0496 30.2399 18.6396 27.5399 16.6696 24.0799C16.3896 23.5899 16.5696 23.2899 16.8096 22.9399C17.8396 21.4199 18.8396 19.8999 19.8896 18.3999C20.5396 17.4699 20.9896 17.4699 21.6296 18.3899C22.5996 19.7799 23.5696 21.1899 24.4696 22.6299C24.9496 23.4099 25.5196 23.7799 26.4396 23.6599C26.8596 23.5999 27.2896 23.6699 27.7196 23.6499C28.7196 23.5799 29.0996 24.0399 29.0496 25.0199C28.9896 26.0799 28.9896 27.1499 29.0496 28.2099C29.1196 29.2999 28.6296 29.6599 27.6096 29.5999C26.9296 29.5599 26.2496 29.5999 25.5696 29.5999L25.5596 29.5799Z" fill="white"/>
<path d="M28.1996 2.95C28.1996 6.34 28.3896 5.91 25.2696 5.88C24.3896 5.88 23.8596 6.14 23.4196 6.88C22.8596 7.83 22.1896 8.72 21.5696 9.63C20.9996 10.47 20.4296 10.42 19.8896 9.61C18.9396 8.2 17.9996 6.78 17.0396 5.38C16.7896 5.02 16.7596 4.72 17.0196 4.35C17.6596 3.45 18.2196 2.49 18.8896 1.61C19.6896 0.52 20.8296 0 22.1896 0C23.6396 0 25.0796 0 26.5296 0C28.0796 0 28.1796 0.12 28.1896 1.68C28.1896 2.11 28.1896 2.53 28.1896 2.96L28.1996 2.95Z" fill="white"/>
</g>
<defs>
<clipPath id="clip0_252_3397">
<rect width="29.05" height="29.68" fill="white"/>
</clipPath>
</defs>
</svg>