<svg width="265" height="213" viewBox="0 0 265 213" fill="none" xmlns="http://www.w3.org/2000/svg">
<g opacity="0.55" clip-path="url(#clip0_360_68)">
<path d="M32.7248 0.0616921C39.6644 0.445707 48.1958 -0.770339 56.5998 0.893723C64.8765 2.49378 71.8799 6.33393 76.7185 13.6302C91.0436 35.007 105.432 56.3198 119.821 77.6966C123.577 83.2648 127.27 88.833 130.899 94.4652C133.828 98.9454 133.7 103.49 130.708 107.906C121.158 122.114 111.544 136.259 101.931 150.467C93.3993 163.076 84.8679 175.684 76.3365 188.229C73.5352 192.389 70.7975 196.549 67.8689 200.581C61.8205 208.902 52.9071 212.166 43.2934 212.614C31.0058 213.19 18.7181 212.806 6.36668 212.806C1.84634 212.806 0 210.886 0 206.277C0 196.293 0 186.245 0 176.26C0 171.524 1.84634 169.732 6.62135 169.732C13.3064 169.668 19.9914 169.668 26.6764 169.732C28.3954 169.732 29.5414 169.22 30.6237 167.684C44.3758 147.331 58.1915 126.978 72.0709 106.754C73.2169 105.09 73.2169 104.002 72.0709 102.338C62.6482 88.641 53.3528 74.9445 44.0574 61.184C40.4921 55.9358 36.9268 50.8156 33.4888 45.5674C32.4064 43.9673 31.2604 43.2633 29.3504 43.2633C23.4294 43.3273 13.6247 43.3273 7.70369 43.2633C3.24701 43.2633 0.445668 41.0232 0.382001 36.6711C0.191001 26.5587 0.191001 16.3823 0.382001 6.26993C0.445668 2.30178 3.11968 0.125694 7.00335 0.125694C13.8157 0.0616921 24.4481 0.0616921 32.7248 0.0616921Z" fill="#0083CA"/>
</g>
<g opacity="0.55" clip-path="url(#clip1_360_68)">
<path d="M165.479 0.0616921C172.366 0.445707 180.833 -0.770339 189.174 0.893723C197.389 2.49378 204.339 6.33393 209.142 13.6302C223.359 35.007 237.64 56.3198 251.92 77.6966C255.648 83.2648 259.313 88.833 262.915 94.4652C265.821 98.9454 265.695 103.49 262.725 107.906C253.247 122.114 243.706 136.259 234.164 150.467C225.697 163.076 217.23 175.684 208.763 188.229C205.982 192.389 203.265 196.549 200.359 200.581C194.356 208.902 185.509 212.166 175.968 212.614C163.773 213.19 151.577 212.806 139.319 212.806C134.832 212.806 133 210.886 133 206.277C133 196.293 133 186.245 133 176.26C133 171.524 134.832 169.732 139.572 169.732C146.206 169.668 152.841 169.668 159.476 169.732C161.182 169.732 162.319 169.22 163.393 167.684C177.042 147.331 190.754 126.978 204.529 106.754C205.666 105.09 205.666 104.002 204.529 102.338C195.177 88.641 185.952 74.9445 176.726 61.184C173.188 55.9358 169.649 50.8156 166.237 45.5674C165.163 43.9673 164.025 43.2633 162.13 43.2633C156.253 43.3273 146.522 43.3273 140.646 43.2633C136.223 43.2633 133.442 41.0232 133.379 36.6711C133.19 26.5587 133.19 16.3823 133.379 6.26993C133.442 2.30178 136.096 0.125694 139.951 0.125694C146.712 0.0616921 157.264 0.0616921 165.479 0.0616921Z" fill="#41B17E"/>
</g>
<defs>
<clipPath id="clip0_360_68">
<rect width="133" height="213" fill="white"/>
</clipPath>
<clipPath id="clip1_360_68">
<rect width="132" height="213" fill="white" transform="translate(133)"/>
</clipPath>
</defs>
</svg>