<svg width="37" height="32" viewBox="0 0 37 32" fill="none" xmlns="http://www.w3.org/2000/svg">
<path d="M30.8987 10.9114C30.8987 4.95166 23.9753 0 15.494 0C6.92343 0.00179068 0 4.95166 0 10.9114C0 14.1671 2.10958 17.2829 5.63933 19.3459L3.2092 26.2693C3.07131 26.5899 3.16264 26.957 3.39187 27.1396C3.57453 27.2775 3.80375 27.4154 3.98821 27.4154C4.03477 27.4154 4.17087 27.3689 4.30876 27.3689L16.5488 21.8208C24.6646 21.3641 30.8987 16.642 30.8987 10.9114ZM15.9993 20.1734L5.4101 24.9871L7.4731 19.2097C7.61099 18.7979 7.42654 18.3842 7.06122 18.2015C3.66946 16.5057 1.69788 13.7997 1.69788 10.9576C1.69788 5.868 7.88688 1.742 15.498 1.742C23.0155 1.742 29.2045 5.868 29.2045 10.9576C29.2045 15.7713 23.6564 19.8506 16.3681 20.1265C16.275 20.08 16.1371 20.0803 15.9993 20.1734Z" fill="white"/>
<path d="M36.6766 15.5419C36.6766 12.9291 35.3926 10.4522 33.0091 8.48277C32.642 8.20698 32.1388 8.25354 31.8164 8.62066C31.4958 8.98777 31.5872 9.53754 31.9543 9.81334C33.926 11.4179 34.9808 13.4809 34.9808 15.5439C34.9808 18.3859 32.9643 21.092 29.6174 22.7878C29.2503 22.9704 29.0676 23.4289 29.2055 23.8426L31.2219 29.5731L20.631 24.7576C20.5396 24.7111 20.4017 24.7111 20.2638 24.6663C18.3387 24.575 16.6429 24.2544 15.083 23.7028C14.9916 23.6563 14.9003 23.6563 14.8072 23.6563H14.7606C14.3022 23.6563 13.9351 24.0234 13.9351 24.5266C13.9351 24.8937 14.2108 25.2142 14.5761 25.3521C16.2273 25.9019 17.9679 26.2225 20.0307 26.3604L32.3175 31.9085C32.4088 31.955 32.5467 31.9998 32.6846 31.9998C32.8673 31.9998 33.0965 31.9085 33.2809 31.7706C33.5102 31.5413 33.6015 31.1742 33.5102 30.8537L31.08 23.9302C34.5667 21.9138 36.6766 18.8422 36.6766 15.5419Z" fill="white"/>
</svg>