<svg width="34" height="34" viewBox="0 0 34 34" fill="none" xmlns="http://www.w3.org/2000/svg">
<g clip-path="url(#clip0_29_193)">
<path d="M17.4663 8.49207C16.0136 8.49215 14.5883 8.88788 13.3436 9.63679C12.0988 10.3857 11.0815 11.4595 10.4009 12.7429C9.72026 14.0263 9.40205 15.4708 9.48039 16.9214C9.55874 18.372 10.0307 19.7738 10.8456 20.9764L10.064 23.9916L13.2064 23.2584C14.2556 23.9186 15.4438 24.3258 16.6772 24.448C17.9107 24.5702 19.1557 24.404 20.314 23.9625C21.4722 23.521 22.512 22.8164 23.3512 21.9042C24.1905 20.992 24.8061 19.8972 25.1497 18.7062C25.4933 17.5153 25.5553 16.2607 25.3309 15.0417C25.1065 13.8227 24.6019 12.6725 23.8567 11.6819C23.1116 10.6913 22.1464 9.88755 21.0374 9.33397C19.9283 8.78038 18.7058 8.49216 17.4663 8.49207ZM21.3988 20.856C20.2802 21.3806 17.9448 21.1069 15.4844 19.0013C13.024 16.8956 12.3928 14.6304 12.7381 13.4442C13.0835 12.2581 14.4401 12.039 14.6961 12.0956C14.952 12.1522 16.2318 14.1812 16.0574 14.4178C15.883 14.6545 15.0407 15.4969 15.0407 15.4969C15.0407 15.4969 15.0052 16.3589 16.5869 17.7125C18.1685 19.0661 19.0147 18.8979 19.0147 18.8979C19.0147 18.8979 19.7168 17.935 19.9237 17.7266C20.1306 17.5181 22.3329 18.4691 22.4284 18.7132C22.5239 18.9573 22.5171 20.3316 21.3985 20.856H21.3988Z" fill="white"/>
<path d="M17 0C7.61115 0 0 7.61115 0 17C0 26.3888 7.61115 34 17 34C26.3888 34 34 26.3888 34 17C34 7.61115 26.3888 0 17 0ZM17.4648 26.1608C15.869 26.1631 14.2977 25.7688 12.8921 25.0132L7.74961 26.2969L9.05217 21.2633C8.00255 19.4142 7.59143 17.2709 7.88239 15.1647C8.17334 13.0585 9.15017 11.1069 10.6618 9.61169C12.1734 8.11648 14.1355 7.16098 16.2448 6.893C18.354 6.62503 20.4927 7.05949 22.3302 8.1292C24.1677 9.19891 25.6015 10.8443 26.4099 12.8108C27.2183 14.7773 27.3562 16.9553 26.8024 19.0081C26.2485 21.0609 25.0336 22.8739 23.3458 24.1669C21.6579 25.4598 19.591 26.1606 17.4648 26.1608Z" fill="white"/>
</g>
<defs>
<clipPath id="clip0_29_193">
<rect width="34" height="34" fill="white"/>
</clipPath>
</defs>
</svg>