<svg width="32" height="32" viewBox="0 0 32 32" fill="none" xmlns="http://www.w3.org/2000/svg">
<g clip-path="url(#clip0_216_3892)">
<path fill-rule="evenodd" clip-rule="evenodd" d="M32 16C32 7.16344 24.8366 0 16 0C7.16344 0 0 7.16344 0 16C0 24.8366 7.16344 32 16 32C24.8366 32 32 24.8366 32 16ZM30.08 16C30.08 8.22383 23.7762 1.92 16 1.92C8.22383 1.92 1.92 8.22383 1.92 16C1.92 23.7762 8.22383 30.08 16 30.08C23.7762 30.08 30.08 23.7762 30.08 16ZM23.5317 19.6899C23.3407 20.5201 22.6616 21.1323 21.8444 21.2236C19.9088 21.4399 17.9497 21.4409 15.999 21.4399C14.0485 21.4409 12.0892 21.4399 10.1538 21.2236C9.33645 21.1323 8.6577 20.5201 8.46684 19.6899C8.19505 18.5075 8.19505 17.2173 8.19505 16.0002C8.19505 14.7829 8.19827 13.4925 8.46988 12.3101C8.66092 11.4799 9.33967 10.8675 10.1568 10.7764C12.0925 10.5601 14.0516 10.559 16.0022 10.5601C17.9527 10.559 19.912 10.5601 21.8475 10.7764C22.6648 10.8675 23.3439 11.4799 23.5348 12.3101C23.8066 13.4925 23.8049 14.7829 23.8049 16.0002C23.8049 17.2173 23.8033 18.5075 23.5317 19.6899ZM14.595 13.12L18.9151 15.6142L14.595 18.1083V13.12Z" fill="white"/>
</g>
<defs>
<clipPath id="clip0_216_3892">
<rect width="32" height="32" fill="white"/>
</clipPath>
</defs>
</svg>